<mxfile host="app.diagrams.net" modified="2023-04-25T19:17:03.719Z" agent="Mozilla/5.0 (Windows NT 10.0; Win64; x64; rv:109.0) Gecko/20100101 Firefox/112.0" version="21.2.1" etag="C_3lyAvz7F5wFUxY3AdJ">
  <diagram id="Sb5j8RT_6X5iySmUrkBr" name="Page-1">
    <mxGraphModel dx="1862" dy="553" grid="1" gridSize="10" guides="1" tooltips="1" connect="1" arrows="1" fold="1" page="1" pageScale="1" pageWidth="827" pageHeight="1169" math="0" shadow="0">
      <root>
        <mxCell id="WIyWlLk6GJQsqaUBKTNV-0" />
        <mxCell id="WIyWlLk6GJQsqaUBKTNV-1" parent="WIyWlLk6GJQsqaUBKTNV-0" />
        <mxCell id="PkM5QRC6UXLmhjLL5aXF-0" value="Χρήστης(User)" style="swimlane;fontStyle=0;childLayout=stackLayout;horizontal=1;startSize=26;fillColor=none;horizontalStack=0;resizeParent=1;resizeParentMax=0;resizeLast=0;collapsible=1;marginBottom=0;whiteSpace=wrap;html=1;" parent="WIyWlLk6GJQsqaUBKTNV-1" vertex="1">
          <mxGeometry x="274" y="90" width="136" height="52" as="geometry" />
        </mxCell>
        <mxCell id="PkM5QRC6UXLmhjLL5aXF-1" value="κατηγορία" style="text;strokeColor=none;fillColor=none;align=left;verticalAlign=top;spacingLeft=4;spacingRight=4;overflow=hidden;rotatable=0;points=[[0,0.5],[1,0.5]];portConstraint=eastwest;whiteSpace=wrap;html=1;" parent="PkM5QRC6UXLmhjLL5aXF-0" vertex="1">
          <mxGeometry y="26" width="136" height="26" as="geometry" />
        </mxCell>
        <mxCell id="PkM5QRC6UXLmhjLL5aXF-4" value="&lt;div&gt;Χρήστης με λογαριασμό&lt;/div&gt;&lt;div&gt;(User with account)&lt;br&gt;&lt;/div&gt;" style="swimlane;fontStyle=0;childLayout=stackLayout;horizontal=1;startSize=40;fillColor=none;horizontalStack=0;resizeParent=1;resizeParentMax=0;resizeLast=0;collapsible=1;marginBottom=0;whiteSpace=wrap;html=1;" parent="WIyWlLk6GJQsqaUBKTNV-1" vertex="1">
          <mxGeometry x="145" y="416" width="150" height="90" as="geometry" />
        </mxCell>
        <mxCell id="PkM5QRC6UXLmhjLL5aXF-12" value="" style="endArrow=block;endSize=16;endFill=0;html=1;rounded=0;" parent="PkM5QRC6UXLmhjLL5aXF-4" target="PkM5QRC6UXLmhjLL5aXF-0" edge="1">
          <mxGeometry width="160" relative="1" as="geometry">
            <mxPoint x="80" as="sourcePoint" />
            <mxPoint x="240" as="targetPoint" />
          </mxGeometry>
        </mxCell>
        <mxCell id="PkM5QRC6UXLmhjLL5aXF-5" value="όνομα_χρήστη" style="text;strokeColor=none;fillColor=none;align=left;verticalAlign=top;spacingLeft=4;spacingRight=4;overflow=hidden;rotatable=0;points=[[0,0.5],[1,0.5]];portConstraint=eastwest;whiteSpace=wrap;html=1;" parent="PkM5QRC6UXLmhjLL5aXF-4" vertex="1">
          <mxGeometry y="40" width="150" height="26" as="geometry" />
        </mxCell>
        <mxCell id="PkM5QRC6UXLmhjLL5aXF-6" value="λίστα_πλάνων" style="text;strokeColor=none;fillColor=none;align=left;verticalAlign=top;spacingLeft=4;spacingRight=4;overflow=hidden;rotatable=0;points=[[0,0.5],[1,0.5]];portConstraint=eastwest;whiteSpace=wrap;html=1;" parent="PkM5QRC6UXLmhjLL5aXF-4" vertex="1">
          <mxGeometry y="66" width="150" height="24" as="geometry" />
        </mxCell>
        <mxCell id="PkM5QRC6UXLmhjLL5aXF-8" value="&lt;div&gt;Χρήστης χωρίς λογαριασμό&lt;/div&gt;&lt;div&gt;(User without account)&lt;br&gt;&lt;/div&gt;" style="swimlane;fontStyle=0;childLayout=stackLayout;horizontal=1;startSize=40;fillColor=none;horizontalStack=0;resizeParent=1;resizeParentMax=0;resizeLast=0;collapsible=1;marginBottom=0;whiteSpace=wrap;html=1;" parent="WIyWlLk6GJQsqaUBKTNV-1" vertex="1">
          <mxGeometry x="380" y="416" width="150" height="70" as="geometry" />
        </mxCell>
        <mxCell id="YyLo7kHKkgCHPDjGbOCP-15" value="κωδικός_πλάνου" style="text;strokeColor=none;fillColor=none;align=left;verticalAlign=middle;spacingLeft=4;spacingRight=4;overflow=hidden;points=[[0,0.5],[1,0.5]];portConstraint=eastwest;rotatable=0;whiteSpace=wrap;html=1;" vertex="1" parent="PkM5QRC6UXLmhjLL5aXF-8">
          <mxGeometry y="40" width="150" height="30" as="geometry" />
        </mxCell>
        <mxCell id="PkM5QRC6UXLmhjLL5aXF-13" value="" style="endArrow=block;endSize=16;endFill=0;html=1;rounded=0;exitX=0.5;exitY=0;exitDx=0;exitDy=0;" parent="WIyWlLk6GJQsqaUBKTNV-1" source="PkM5QRC6UXLmhjLL5aXF-8" target="PkM5QRC6UXLmhjLL5aXF-0" edge="1">
          <mxGeometry width="160" relative="1" as="geometry">
            <mxPoint x="480" y="350" as="sourcePoint" />
            <mxPoint x="390" y="230" as="targetPoint" />
          </mxGeometry>
        </mxCell>
        <mxCell id="PkM5QRC6UXLmhjLL5aXF-14" value="Πλάνο(working plan)" style="swimlane;fontStyle=0;childLayout=stackLayout;horizontal=1;startSize=26;fillColor=none;horizontalStack=0;resizeParent=1;resizeParentMax=0;resizeLast=0;collapsible=1;marginBottom=0;whiteSpace=wrap;html=1;" parent="WIyWlLk6GJQsqaUBKTNV-1" vertex="1">
          <mxGeometry x="-170" y="550" width="140" height="52" as="geometry" />
        </mxCell>
        <mxCell id="PkM5QRC6UXLmhjLL5aXF-21" value="Σπίτι(house)" style="swimlane;fontStyle=0;childLayout=stackLayout;horizontal=1;startSize=26;fillColor=none;horizontalStack=0;resizeParent=1;resizeParentMax=0;resizeLast=0;collapsible=1;marginBottom=0;whiteSpace=wrap;html=1;" parent="WIyWlLk6GJQsqaUBKTNV-1" vertex="1">
          <mxGeometry x="-170" y="820" width="140" height="130" as="geometry" />
        </mxCell>
        <mxCell id="PkM5QRC6UXLmhjLL5aXF-22" value="&amp;nbsp;λίστα_δωματίων" style="text;strokeColor=none;fillColor=none;align=left;verticalAlign=top;spacingLeft=4;spacingRight=4;overflow=hidden;rotatable=0;points=[[0,0.5],[1,0.5]];portConstraint=eastwest;whiteSpace=wrap;html=1;" parent="PkM5QRC6UXLmhjLL5aXF-21" vertex="1">
          <mxGeometry y="26" width="140" height="26" as="geometry" />
        </mxCell>
        <mxCell id="PkM5QRC6UXLmhjLL5aXF-23" value="&amp;nbsp;όρια_σπιτιού" style="text;strokeColor=none;fillColor=none;align=left;verticalAlign=top;spacingLeft=4;spacingRight=4;overflow=hidden;rotatable=0;points=[[0,0.5],[1,0.5]];portConstraint=eastwest;whiteSpace=wrap;html=1;" parent="PkM5QRC6UXLmhjLL5aXF-21" vertex="1">
          <mxGeometry y="52" width="140" height="26" as="geometry" />
        </mxCell>
        <mxCell id="PkM5QRC6UXLmhjLL5aXF-24" value="&amp;nbsp;σύνδεση_κήπου" style="text;strokeColor=none;fillColor=none;align=left;verticalAlign=top;spacingLeft=4;spacingRight=4;overflow=hidden;rotatable=0;points=[[0,0.5],[1,0.5]];portConstraint=eastwest;whiteSpace=wrap;html=1;" parent="PkM5QRC6UXLmhjLL5aXF-21" vertex="1">
          <mxGeometry y="78" width="140" height="26" as="geometry" />
        </mxCell>
        <mxCell id="PkM5QRC6UXLmhjLL5aXF-128" value="&amp;nbsp;κατάσταση_σπιτιού" style="text;strokeColor=none;fillColor=none;align=left;verticalAlign=top;spacingLeft=4;spacingRight=4;overflow=hidden;rotatable=0;points=[[0,0.5],[1,0.5]];portConstraint=eastwest;whiteSpace=wrap;html=1;" parent="PkM5QRC6UXLmhjLL5aXF-21" vertex="1">
          <mxGeometry y="104" width="140" height="26" as="geometry" />
        </mxCell>
        <mxCell id="PkM5QRC6UXLmhjLL5aXF-25" value="Δωμάτιο(room)" style="swimlane;fontStyle=0;childLayout=stackLayout;horizontal=1;startSize=26;fillColor=none;horizontalStack=0;resizeParent=1;resizeParentMax=0;resizeLast=0;collapsible=1;marginBottom=0;whiteSpace=wrap;html=1;" parent="WIyWlLk6GJQsqaUBKTNV-1" vertex="1">
          <mxGeometry x="-170" y="1080" width="140" height="110" as="geometry" />
        </mxCell>
        <mxCell id="PkM5QRC6UXLmhjLL5aXF-26" value="διαστάσεις" style="text;strokeColor=none;fillColor=none;align=left;verticalAlign=top;spacingLeft=4;spacingRight=4;overflow=hidden;rotatable=0;points=[[0,0.5],[1,0.5]];portConstraint=eastwest;whiteSpace=wrap;html=1;" parent="PkM5QRC6UXLmhjLL5aXF-25" vertex="1">
          <mxGeometry y="26" width="140" height="26" as="geometry" />
        </mxCell>
        <mxCell id="YyLo7kHKkgCHPDjGbOCP-16" value="είδος" style="text;strokeColor=none;fillColor=none;align=left;verticalAlign=middle;spacingLeft=4;spacingRight=4;overflow=hidden;points=[[0,0.5],[1,0.5]];portConstraint=eastwest;rotatable=0;whiteSpace=wrap;html=1;" vertex="1" parent="PkM5QRC6UXLmhjLL5aXF-25">
          <mxGeometry y="52" width="140" height="30" as="geometry" />
        </mxCell>
        <mxCell id="PkM5QRC6UXLmhjLL5aXF-27" value="θέση" style="text;strokeColor=none;fillColor=none;align=left;verticalAlign=top;spacingLeft=4;spacingRight=4;overflow=hidden;rotatable=0;points=[[0,0.5],[1,0.5]];portConstraint=eastwest;whiteSpace=wrap;html=1;" parent="PkM5QRC6UXLmhjLL5aXF-25" vertex="1">
          <mxGeometry y="82" width="140" height="28" as="geometry" />
        </mxCell>
        <mxCell id="PkM5QRC6UXLmhjLL5aXF-39" value="1" style="endArrow=diamondThin;endFill=0;endSize=24;html=1;rounded=0;exitX=0.571;exitY=0;exitDx=0;exitDy=0;exitPerimeter=0;entryX=0.003;entryY=0.135;entryDx=0;entryDy=0;entryPerimeter=0;" parent="WIyWlLk6GJQsqaUBKTNV-1" source="PkM5QRC6UXLmhjLL5aXF-14" edge="1" target="PkM5QRC6UXLmhjLL5aXF-4">
          <mxGeometry x="0.8016" y="8" width="160" relative="1" as="geometry">
            <mxPoint x="-70" y="560" as="sourcePoint" />
            <mxPoint x="140" y="430" as="targetPoint" />
            <Array as="points">
              <mxPoint x="-90" y="428" />
            </Array>
            <mxPoint as="offset" />
          </mxGeometry>
        </mxCell>
        <mxCell id="PkM5QRC6UXLmhjLL5aXF-41" value="Αντικείμενα( objects)" style="swimlane;fontStyle=0;childLayout=stackLayout;horizontal=1;startSize=26;fillColor=none;horizontalStack=0;resizeParent=1;resizeParentMax=0;resizeLast=0;collapsible=1;marginBottom=0;whiteSpace=wrap;html=1;" parent="WIyWlLk6GJQsqaUBKTNV-1" vertex="1">
          <mxGeometry x="-200" y="1340" width="220" height="134" as="geometry">
            <mxRectangle x="150" y="1030" width="150" height="30" as="alternateBounds" />
          </mxGeometry>
        </mxCell>
        <mxCell id="YyLo7kHKkgCHPDjGbOCP-22" value="θέση" style="text;strokeColor=none;fillColor=none;align=left;verticalAlign=middle;spacingLeft=4;spacingRight=4;overflow=hidden;points=[[0,0.5],[1,0.5]];portConstraint=eastwest;rotatable=0;whiteSpace=wrap;html=1;" vertex="1" parent="PkM5QRC6UXLmhjLL5aXF-41">
          <mxGeometry y="26" width="220" height="30" as="geometry" />
        </mxCell>
        <mxCell id="PkM5QRC6UXLmhjLL5aXF-42" value="ύψος" style="text;strokeColor=none;fillColor=none;align=left;verticalAlign=top;spacingLeft=4;spacingRight=4;overflow=hidden;rotatable=0;points=[[0,0.5],[1,0.5]];portConstraint=eastwest;whiteSpace=wrap;html=1;" parent="PkM5QRC6UXLmhjLL5aXF-41" vertex="1">
          <mxGeometry y="56" width="220" height="26" as="geometry" />
        </mxCell>
        <mxCell id="PkM5QRC6UXLmhjLL5aXF-43" value="πλάτος" style="text;strokeColor=none;fillColor=none;align=left;verticalAlign=top;spacingLeft=4;spacingRight=4;overflow=hidden;rotatable=0;points=[[0,0.5],[1,0.5]];portConstraint=eastwest;whiteSpace=wrap;html=1;" parent="PkM5QRC6UXLmhjLL5aXF-41" vertex="1">
          <mxGeometry y="82" width="220" height="26" as="geometry" />
        </mxCell>
        <mxCell id="PkM5QRC6UXLmhjLL5aXF-44" value="μήκος" style="text;strokeColor=none;fillColor=none;align=left;verticalAlign=top;spacingLeft=4;spacingRight=4;overflow=hidden;rotatable=0;points=[[0,0.5],[1,0.5]];portConstraint=eastwest;whiteSpace=wrap;html=1;" parent="PkM5QRC6UXLmhjLL5aXF-41" vertex="1">
          <mxGeometry y="108" width="220" height="26" as="geometry" />
        </mxCell>
        <mxCell id="PkM5QRC6UXLmhjLL5aXF-45" value="Έπιπλα(furniture)" style="swimlane;fontStyle=0;childLayout=stackLayout;horizontal=1;startSize=26;fillColor=none;horizontalStack=0;resizeParent=1;resizeParentMax=0;resizeLast=0;collapsible=1;marginBottom=0;whiteSpace=wrap;html=1;" parent="WIyWlLk6GJQsqaUBKTNV-1" vertex="1">
          <mxGeometry x="-490" y="1548" width="140" height="78" as="geometry" />
        </mxCell>
        <mxCell id="PkM5QRC6UXLmhjLL5aXF-49" value="" style="endArrow=block;endSize=16;endFill=0;html=1;rounded=0;entryX=0;entryY=0.5;entryDx=0;entryDy=0;" parent="PkM5QRC6UXLmhjLL5aXF-45" target="PkM5QRC6UXLmhjLL5aXF-44" edge="1">
          <mxGeometry width="160" relative="1" as="geometry">
            <mxPoint x="70" as="sourcePoint" />
            <mxPoint x="230" as="targetPoint" />
          </mxGeometry>
        </mxCell>
        <mxCell id="PkM5QRC6UXLmhjLL5aXF-47" value="υλκό" style="text;strokeColor=none;fillColor=none;align=left;verticalAlign=top;spacingLeft=4;spacingRight=4;overflow=hidden;rotatable=0;points=[[0,0.5],[1,0.5]];portConstraint=eastwest;whiteSpace=wrap;html=1;" parent="PkM5QRC6UXLmhjLL5aXF-45" vertex="1">
          <mxGeometry y="26" width="140" height="26" as="geometry" />
        </mxCell>
        <mxCell id="PkM5QRC6UXLmhjLL5aXF-48" value="χρώμα" style="text;strokeColor=none;fillColor=none;align=left;verticalAlign=top;spacingLeft=4;spacingRight=4;overflow=hidden;rotatable=0;points=[[0,0.5],[1,0.5]];portConstraint=eastwest;whiteSpace=wrap;html=1;" parent="PkM5QRC6UXLmhjLL5aXF-45" vertex="1">
          <mxGeometry y="52" width="140" height="26" as="geometry" />
        </mxCell>
        <mxCell id="PkM5QRC6UXLmhjLL5aXF-56" value="Πάτωμα(floor)" style="swimlane;fontStyle=0;childLayout=stackLayout;horizontal=1;startSize=26;fillColor=none;horizontalStack=0;resizeParent=1;resizeParentMax=0;resizeLast=0;collapsible=1;marginBottom=0;whiteSpace=wrap;html=1;" parent="WIyWlLk6GJQsqaUBKTNV-1" vertex="1">
          <mxGeometry x="-320" y="1660" width="140" height="78" as="geometry" />
        </mxCell>
        <mxCell id="PkM5QRC6UXLmhjLL5aXF-57" value="υλικό" style="text;strokeColor=none;fillColor=none;align=left;verticalAlign=top;spacingLeft=4;spacingRight=4;overflow=hidden;rotatable=0;points=[[0,0.5],[1,0.5]];portConstraint=eastwest;whiteSpace=wrap;html=1;" parent="PkM5QRC6UXLmhjLL5aXF-56" vertex="1">
          <mxGeometry y="26" width="140" height="26" as="geometry" />
        </mxCell>
        <mxCell id="PkM5QRC6UXLmhjLL5aXF-58" value="χρώμα" style="text;strokeColor=none;fillColor=none;align=left;verticalAlign=top;spacingLeft=4;spacingRight=4;overflow=hidden;rotatable=0;points=[[0,0.5],[1,0.5]];portConstraint=eastwest;whiteSpace=wrap;html=1;" parent="PkM5QRC6UXLmhjLL5aXF-56" vertex="1">
          <mxGeometry y="52" width="140" height="26" as="geometry" />
        </mxCell>
        <mxCell id="PkM5QRC6UXLmhjLL5aXF-60" value="" style="endArrow=block;endSize=16;endFill=0;html=1;rounded=0;exitX=0.364;exitY=-0.048;exitDx=0;exitDy=0;exitPerimeter=0;" parent="WIyWlLk6GJQsqaUBKTNV-1" source="PkM5QRC6UXLmhjLL5aXF-56" target="PkM5QRC6UXLmhjLL5aXF-41" edge="1">
          <mxGeometry width="160" relative="1" as="geometry">
            <mxPoint x="-60" y="1680" as="sourcePoint" />
            <mxPoint y="1601" as="targetPoint" />
          </mxGeometry>
        </mxCell>
        <mxCell id="PkM5QRC6UXLmhjLL5aXF-61" value="Ανοίγματα(openings)" style="swimlane;fontStyle=0;childLayout=stackLayout;horizontal=1;startSize=26;fillColor=none;horizontalStack=0;resizeParent=1;resizeParentMax=0;resizeLast=0;collapsible=1;marginBottom=0;whiteSpace=wrap;html=1;" parent="WIyWlLk6GJQsqaUBKTNV-1" vertex="1">
          <mxGeometry x="627" y="1500" width="140" height="104" as="geometry" />
        </mxCell>
        <mxCell id="PkM5QRC6UXLmhjLL5aXF-65" value="" style="endArrow=block;endSize=16;endFill=0;html=1;rounded=0;entryX=0.977;entryY=0.077;entryDx=0;entryDy=0;entryPerimeter=0;" parent="PkM5QRC6UXLmhjLL5aXF-61" target="PkM5QRC6UXLmhjLL5aXF-44" edge="1">
          <mxGeometry width="160" relative="1" as="geometry">
            <mxPoint x="73" as="sourcePoint" />
            <mxPoint x="-90" y="-80" as="targetPoint" />
            <Array as="points">
              <mxPoint x="73" y="-50" />
            </Array>
          </mxGeometry>
        </mxCell>
        <mxCell id="PkM5QRC6UXLmhjLL5aXF-62" value="ανοιγόμενο-συρόμενο" style="text;strokeColor=none;fillColor=none;align=left;verticalAlign=top;spacingLeft=4;spacingRight=4;overflow=hidden;rotatable=0;points=[[0,0.5],[1,0.5]];portConstraint=eastwest;whiteSpace=wrap;html=1;" parent="PkM5QRC6UXLmhjLL5aXF-61" vertex="1">
          <mxGeometry y="26" width="140" height="26" as="geometry" />
        </mxCell>
        <mxCell id="PkM5QRC6UXLmhjLL5aXF-63" value="χρώμα" style="text;strokeColor=none;fillColor=none;align=left;verticalAlign=top;spacingLeft=4;spacingRight=4;overflow=hidden;rotatable=0;points=[[0,0.5],[1,0.5]];portConstraint=eastwest;whiteSpace=wrap;html=1;" parent="PkM5QRC6UXLmhjLL5aXF-61" vertex="1">
          <mxGeometry y="52" width="140" height="26" as="geometry" />
        </mxCell>
        <mxCell id="PkM5QRC6UXLmhjLL5aXF-64" value="υλικό" style="text;strokeColor=none;fillColor=none;align=left;verticalAlign=top;spacingLeft=4;spacingRight=4;overflow=hidden;rotatable=0;points=[[0,0.5],[1,0.5]];portConstraint=eastwest;whiteSpace=wrap;html=1;" parent="PkM5QRC6UXLmhjLL5aXF-61" vertex="1">
          <mxGeometry y="78" width="140" height="26" as="geometry" />
        </mxCell>
        <mxCell id="PkM5QRC6UXLmhjLL5aXF-66" value="Πρίζα(plug)" style="swimlane;fontStyle=0;childLayout=stackLayout;horizontal=1;startSize=26;fillColor=none;horizontalStack=0;resizeParent=1;resizeParentMax=0;resizeLast=0;collapsible=1;marginBottom=0;whiteSpace=wrap;html=1;" parent="WIyWlLk6GJQsqaUBKTNV-1" vertex="1">
          <mxGeometry x="-130" y="1790" width="140" height="52" as="geometry" />
        </mxCell>
        <mxCell id="PkM5QRC6UXLmhjLL5aXF-86" value="" style="endArrow=block;endSize=16;endFill=0;html=1;rounded=0;entryX=0.611;entryY=0.912;entryDx=0;entryDy=0;entryPerimeter=0;" parent="PkM5QRC6UXLmhjLL5aXF-66" target="PkM5QRC6UXLmhjLL5aXF-44" edge="1">
          <mxGeometry width="160" relative="1" as="geometry">
            <mxPoint x="70" as="sourcePoint" />
            <mxPoint x="60" y="-359" as="targetPoint" />
          </mxGeometry>
        </mxCell>
        <mxCell id="PkM5QRC6UXLmhjLL5aXF-70" value="Τοίχος(wall)" style="swimlane;fontStyle=0;childLayout=stackLayout;horizontal=1;startSize=26;fillColor=none;horizontalStack=0;resizeParent=1;resizeParentMax=0;resizeLast=0;collapsible=1;marginBottom=0;whiteSpace=wrap;html=1;" parent="WIyWlLk6GJQsqaUBKTNV-1" vertex="1">
          <mxGeometry x="130" y="1686" width="140" height="104" as="geometry" />
        </mxCell>
        <mxCell id="PkM5QRC6UXLmhjLL5aXF-87" value="" style="endArrow=block;endSize=16;endFill=0;html=1;rounded=0;entryX=0.765;entryY=0.867;entryDx=0;entryDy=0;entryPerimeter=0;" parent="PkM5QRC6UXLmhjLL5aXF-70" target="PkM5QRC6UXLmhjLL5aXF-44" edge="1">
          <mxGeometry width="160" relative="1" as="geometry">
            <mxPoint x="70" as="sourcePoint" />
            <mxPoint x="-40" y="-60" as="targetPoint" />
          </mxGeometry>
        </mxCell>
        <mxCell id="PkM5QRC6UXLmhjLL5aXF-71" value="χρώμα" style="text;strokeColor=none;fillColor=none;align=left;verticalAlign=top;spacingLeft=4;spacingRight=4;overflow=hidden;rotatable=0;points=[[0,0.5],[1,0.5]];portConstraint=eastwest;whiteSpace=wrap;html=1;" parent="PkM5QRC6UXLmhjLL5aXF-70" vertex="1">
          <mxGeometry y="26" width="140" height="26" as="geometry" />
        </mxCell>
        <mxCell id="PkM5QRC6UXLmhjLL5aXF-72" value="υλικό" style="text;strokeColor=none;fillColor=none;align=left;verticalAlign=top;spacingLeft=4;spacingRight=4;overflow=hidden;rotatable=0;points=[[0,0.5],[1,0.5]];portConstraint=eastwest;whiteSpace=wrap;html=1;" parent="PkM5QRC6UXLmhjLL5aXF-70" vertex="1">
          <mxGeometry y="52" width="140" height="26" as="geometry" />
        </mxCell>
        <mxCell id="PkM5QRC6UXLmhjLL5aXF-73" value="ταπετσαρία" style="text;strokeColor=none;fillColor=none;align=left;verticalAlign=top;spacingLeft=4;spacingRight=4;overflow=hidden;rotatable=0;points=[[0,0.5],[1,0.5]];portConstraint=eastwest;whiteSpace=wrap;html=1;" parent="PkM5QRC6UXLmhjLL5aXF-70" vertex="1">
          <mxGeometry y="78" width="140" height="26" as="geometry" />
        </mxCell>
        <mxCell id="PkM5QRC6UXLmhjLL5aXF-78" value="Παράθυρο(window)" style="swimlane;fontStyle=0;childLayout=stackLayout;horizontal=1;startSize=26;fillColor=none;horizontalStack=0;resizeParent=1;resizeParentMax=0;resizeLast=0;collapsible=1;marginBottom=0;whiteSpace=wrap;html=1;" parent="WIyWlLk6GJQsqaUBKTNV-1" vertex="1">
          <mxGeometry x="390" y="1686" width="140" height="104" as="geometry" />
        </mxCell>
        <mxCell id="PkM5QRC6UXLmhjLL5aXF-79" value="κουρτίνα" style="text;strokeColor=none;fillColor=none;align=left;verticalAlign=top;spacingLeft=4;spacingRight=4;overflow=hidden;rotatable=0;points=[[0,0.5],[1,0.5]];portConstraint=eastwest;whiteSpace=wrap;html=1;" parent="PkM5QRC6UXLmhjLL5aXF-78" vertex="1">
          <mxGeometry y="26" width="140" height="26" as="geometry" />
        </mxCell>
        <mxCell id="PkM5QRC6UXLmhjLL5aXF-80" value="παντζούρι" style="text;strokeColor=none;fillColor=none;align=left;verticalAlign=top;spacingLeft=4;spacingRight=4;overflow=hidden;rotatable=0;points=[[0,0.5],[1,0.5]];portConstraint=eastwest;whiteSpace=wrap;html=1;" parent="PkM5QRC6UXLmhjLL5aXF-78" vertex="1">
          <mxGeometry y="52" width="140" height="26" as="geometry" />
        </mxCell>
        <mxCell id="PkM5QRC6UXLmhjLL5aXF-81" value="κουρτινόξυλο" style="text;strokeColor=none;fillColor=none;align=left;verticalAlign=top;spacingLeft=4;spacingRight=4;overflow=hidden;rotatable=0;points=[[0,0.5],[1,0.5]];portConstraint=eastwest;whiteSpace=wrap;html=1;" parent="PkM5QRC6UXLmhjLL5aXF-78" vertex="1">
          <mxGeometry y="78" width="140" height="26" as="geometry" />
        </mxCell>
        <mxCell id="PkM5QRC6UXLmhjLL5aXF-82" value="Πόρτα(door)" style="swimlane;fontStyle=0;childLayout=stackLayout;horizontal=1;startSize=26;fillColor=none;horizontalStack=0;resizeParent=1;resizeParentMax=0;resizeLast=0;collapsible=1;marginBottom=0;whiteSpace=wrap;html=1;" parent="WIyWlLk6GJQsqaUBKTNV-1" vertex="1">
          <mxGeometry x="850" y="1686" width="140" height="78" as="geometry" />
        </mxCell>
        <mxCell id="PkM5QRC6UXLmhjLL5aXF-83" value="ασφαλείας" style="text;strokeColor=none;fillColor=none;align=left;verticalAlign=top;spacingLeft=4;spacingRight=4;overflow=hidden;rotatable=0;points=[[0,0.5],[1,0.5]];portConstraint=eastwest;whiteSpace=wrap;html=1;" parent="PkM5QRC6UXLmhjLL5aXF-82" vertex="1">
          <mxGeometry y="26" width="140" height="26" as="geometry" />
        </mxCell>
        <mxCell id="PkM5QRC6UXLmhjLL5aXF-84" value="εξωτερική-εσωτερική" style="text;strokeColor=none;fillColor=none;align=left;verticalAlign=top;spacingLeft=4;spacingRight=4;overflow=hidden;rotatable=0;points=[[0,0.5],[1,0.5]];portConstraint=eastwest;whiteSpace=wrap;html=1;" parent="PkM5QRC6UXLmhjLL5aXF-82" vertex="1">
          <mxGeometry y="52" width="140" height="26" as="geometry" />
        </mxCell>
        <mxCell id="PkM5QRC6UXLmhjLL5aXF-88" value="" style="endArrow=block;endSize=16;endFill=0;html=1;rounded=0;exitX=0.75;exitY=0;exitDx=0;exitDy=0;" parent="WIyWlLk6GJQsqaUBKTNV-1" source="PkM5QRC6UXLmhjLL5aXF-78" target="PkM5QRC6UXLmhjLL5aXF-61" edge="1">
          <mxGeometry width="160" relative="1" as="geometry">
            <mxPoint x="565" y="1650" as="sourcePoint" />
            <mxPoint x="800" y="1860" as="targetPoint" />
          </mxGeometry>
        </mxCell>
        <mxCell id="PkM5QRC6UXLmhjLL5aXF-95" value="Κατηγορίες Χρηστών(users groups)" style="swimlane;fontStyle=0;childLayout=stackLayout;horizontal=1;startSize=40;horizontalStack=0;resizeParent=1;resizeParentMax=0;resizeLast=0;collapsible=1;marginBottom=0;whiteSpace=wrap;html=1;" parent="WIyWlLk6GJQsqaUBKTNV-1" vertex="1">
          <mxGeometry x="847" y="431" width="140" height="144" as="geometry" />
        </mxCell>
        <mxCell id="PkM5QRC6UXLmhjLL5aXF-96" value="φοιτητής" style="text;strokeColor=none;fillColor=none;align=left;verticalAlign=top;spacingLeft=4;spacingRight=4;overflow=hidden;rotatable=0;points=[[0,0.5],[1,0.5]];portConstraint=eastwest;whiteSpace=wrap;html=1;" parent="PkM5QRC6UXLmhjLL5aXF-95" vertex="1">
          <mxGeometry y="40" width="140" height="26" as="geometry" />
        </mxCell>
        <mxCell id="PkM5QRC6UXLmhjLL5aXF-97" value="μινιμαλιστής" style="text;strokeColor=none;fillColor=none;align=left;verticalAlign=top;spacingLeft=4;spacingRight=4;overflow=hidden;rotatable=0;points=[[0,0.5],[1,0.5]];portConstraint=eastwest;whiteSpace=wrap;html=1;" parent="PkM5QRC6UXLmhjLL5aXF-95" vertex="1">
          <mxGeometry y="66" width="140" height="26" as="geometry" />
        </mxCell>
        <mxCell id="PkM5QRC6UXLmhjLL5aXF-98" value="ενήλικας_έγγαμος" style="text;strokeColor=none;fillColor=none;align=left;verticalAlign=top;spacingLeft=4;spacingRight=4;overflow=hidden;rotatable=0;points=[[0,0.5],[1,0.5]];portConstraint=eastwest;whiteSpace=wrap;html=1;" parent="PkM5QRC6UXLmhjLL5aXF-95" vertex="1">
          <mxGeometry y="92" width="140" height="26" as="geometry" />
        </mxCell>
        <mxCell id="PkM5QRC6UXLmhjLL5aXF-124" value="οικογενειάρχης" style="text;strokeColor=none;fillColor=none;align=left;verticalAlign=top;spacingLeft=4;spacingRight=4;overflow=hidden;rotatable=0;points=[[0,0.5],[1,0.5]];portConstraint=eastwest;whiteSpace=wrap;html=1;" parent="PkM5QRC6UXLmhjLL5aXF-95" vertex="1">
          <mxGeometry y="118" width="140" height="26" as="geometry" />
        </mxCell>
        <mxCell id="PkM5QRC6UXLmhjLL5aXF-99" value="Προτιμήσεισ Χρηστών(users preferences)" style="swimlane;fontStyle=0;childLayout=stackLayout;horizontal=1;startSize=56;horizontalStack=0;resizeParent=1;resizeParentMax=0;resizeLast=0;collapsible=1;marginBottom=0;whiteSpace=wrap;html=1;" parent="WIyWlLk6GJQsqaUBKTNV-1" vertex="1">
          <mxGeometry x="1290" y="462" width="140" height="82" as="geometry" />
        </mxCell>
        <mxCell id="PkM5QRC6UXLmhjLL5aXF-110" value="αποτελόυνται από" style="endArrow=diamondThin;endFill=0;endSize=24;html=1;rounded=0;exitX=1;exitY=0.5;exitDx=0;exitDy=0;entryX=0;entryY=0;entryDx=0;entryDy=0;" parent="WIyWlLk6GJQsqaUBKTNV-1" source="PkM5QRC6UXLmhjLL5aXF-1" target="PkM5QRC6UXLmhjLL5aXF-95" edge="1">
          <mxGeometry width="160" relative="1" as="geometry">
            <mxPoint x="490" y="230" as="sourcePoint" />
            <mxPoint x="650" y="230" as="targetPoint" />
          </mxGeometry>
        </mxCell>
        <mxCell id="YyLo7kHKkgCHPDjGbOCP-0" value="" style="endArrow=block;endSize=16;endFill=0;html=1;rounded=0;exitX=0.25;exitY=0;exitDx=0;exitDy=0;entryX=0.994;entryY=0.719;entryDx=0;entryDy=0;entryPerimeter=0;" edge="1" parent="WIyWlLk6GJQsqaUBKTNV-1" source="PkM5QRC6UXLmhjLL5aXF-82" target="PkM5QRC6UXLmhjLL5aXF-64">
          <mxGeometry width="160" relative="1" as="geometry">
            <mxPoint x="700" y="1692" as="sourcePoint" />
            <mxPoint x="760" y="1600" as="targetPoint" />
          </mxGeometry>
        </mxCell>
        <mxCell id="YyLo7kHKkgCHPDjGbOCP-3" value="αποτελείται από" style="endArrow=none;html=1;endSize=12;startArrow=diamondThin;startSize=14;startFill=0;edgeStyle=orthogonalEdgeStyle;rounded=0;endFill=0;entryX=0.454;entryY=0.001;entryDx=0;entryDy=0;entryPerimeter=0;exitX=0.5;exitY=1;exitDx=0;exitDy=0;" edge="1" parent="WIyWlLk6GJQsqaUBKTNV-1" source="PkM5QRC6UXLmhjLL5aXF-25" target="PkM5QRC6UXLmhjLL5aXF-41">
          <mxGeometry relative="1" as="geometry">
            <mxPoint x="-100" y="1190" as="sourcePoint" />
            <mxPoint x="-100" y="1340" as="targetPoint" />
            <Array as="points" />
          </mxGeometry>
        </mxCell>
        <mxCell id="YyLo7kHKkgCHPDjGbOCP-6" value="αποτελείται από" style="endArrow=none;html=1;endSize=12;startArrow=diamondThin;startSize=14;startFill=0;edgeStyle=orthogonalEdgeStyle;rounded=0;endFill=0;entryX=0.5;entryY=0;entryDx=0;entryDy=0;exitX=0.5;exitY=1;exitDx=0;exitDy=0;exitPerimeter=0;" edge="1" parent="WIyWlLk6GJQsqaUBKTNV-1" source="PkM5QRC6UXLmhjLL5aXF-128" target="PkM5QRC6UXLmhjLL5aXF-25">
          <mxGeometry relative="1" as="geometry">
            <mxPoint x="-100" y="960" as="sourcePoint" />
            <mxPoint x="-99.52000000000001" y="1079" as="targetPoint" />
            <Array as="points">
              <mxPoint x="-100" y="1070" />
              <mxPoint x="-100" y="1070" />
            </Array>
          </mxGeometry>
        </mxCell>
        <mxCell id="YyLo7kHKkgCHPDjGbOCP-7" value="αποτελείται από" style="endArrow=none;html=1;endSize=12;startArrow=diamondThin;startSize=14;startFill=0;edgeStyle=orthogonalEdgeStyle;rounded=0;endFill=0;entryX=0.5;entryY=0;entryDx=0;entryDy=0;exitX=0.5;exitY=1;exitDx=0;exitDy=0;" edge="1" parent="WIyWlLk6GJQsqaUBKTNV-1" source="PkM5QRC6UXLmhjLL5aXF-14" target="PkM5QRC6UXLmhjLL5aXF-21">
          <mxGeometry relative="1" as="geometry">
            <mxPoint x="-100" y="680" as="sourcePoint" />
            <mxPoint x="-100" y="820" as="targetPoint" />
            <Array as="points" />
          </mxGeometry>
        </mxCell>
        <mxCell id="YyLo7kHKkgCHPDjGbOCP-8" value="δημιουργούνται βάσει" style="endArrow=none;html=1;rounded=0;entryX=0.015;entryY=0.328;entryDx=0;entryDy=0;entryPerimeter=0;exitX=1.006;exitY=0.716;exitDx=0;exitDy=0;exitPerimeter=0;" edge="1" parent="WIyWlLk6GJQsqaUBKTNV-1" source="PkM5QRC6UXLmhjLL5aXF-96" target="PkM5QRC6UXLmhjLL5aXF-99">
          <mxGeometry width="50" height="50" relative="1" as="geometry">
            <mxPoint x="990" y="490" as="sourcePoint" />
            <mxPoint x="1250" y="480" as="targetPoint" />
          </mxGeometry>
        </mxCell>
        <mxCell id="YyLo7kHKkgCHPDjGbOCP-9" value="n" style="text;html=1;align=center;verticalAlign=middle;resizable=0;points=[];autosize=1;strokeColor=none;fillColor=none;" vertex="1" parent="WIyWlLk6GJQsqaUBKTNV-1">
          <mxGeometry x="-95" y="518" width="30" height="30" as="geometry" />
        </mxCell>
        <mxCell id="YyLo7kHKkgCHPDjGbOCP-11" value="1" style="endArrow=diamondThin;endFill=0;endSize=24;html=1;rounded=0;exitX=1;exitY=0;exitDx=0;exitDy=0;entryX=0;entryY=1;entryDx=0;entryDy=0;" edge="1" parent="WIyWlLk6GJQsqaUBKTNV-1" source="PkM5QRC6UXLmhjLL5aXF-14" target="PkM5QRC6UXLmhjLL5aXF-8">
          <mxGeometry x="0.8016" y="8" width="160" relative="1" as="geometry">
            <mxPoint y="663" as="sourcePoint" />
            <mxPoint x="420" y="540" as="targetPoint" />
            <Array as="points">
              <mxPoint x="380" y="550" />
            </Array>
            <mxPoint as="offset" />
          </mxGeometry>
        </mxCell>
        <mxCell id="YyLo7kHKkgCHPDjGbOCP-12" value="1" style="text;html=1;align=center;verticalAlign=middle;resizable=0;points=[];autosize=1;strokeColor=none;fillColor=none;" vertex="1" parent="WIyWlLk6GJQsqaUBKTNV-1">
          <mxGeometry x="-20" y="548" width="30" height="30" as="geometry" />
        </mxCell>
        <mxCell id="YyLo7kHKkgCHPDjGbOCP-18" value="Τμήματα επίπλου" style="swimlane;fontStyle=0;childLayout=stackLayout;horizontal=1;startSize=26;fillColor=none;horizontalStack=0;resizeParent=1;resizeParentMax=0;resizeLast=0;collapsible=1;marginBottom=0;whiteSpace=wrap;html=1;" vertex="1" parent="WIyWlLk6GJQsqaUBKTNV-1">
          <mxGeometry x="-610" y="1670" width="140" height="52" as="geometry" />
        </mxCell>
        <mxCell id="YyLo7kHKkgCHPDjGbOCP-19" value="" style="endArrow=diamondThin;endSize=16;endFill=1;html=1;rounded=0;entryX=-0.002;entryY=0.891;entryDx=0;entryDy=0;entryPerimeter=0;" edge="1" parent="YyLo7kHKkgCHPDjGbOCP-18" target="PkM5QRC6UXLmhjLL5aXF-48">
          <mxGeometry width="160" relative="1" as="geometry">
            <mxPoint x="70" as="sourcePoint" />
            <mxPoint x="130" y="-40" as="targetPoint" />
          </mxGeometry>
        </mxCell>
        <mxCell id="YyLo7kHKkgCHPDjGbOCP-23" value="Καλάθι αντικειμένων χρήστη" style="swimlane;fontStyle=0;childLayout=stackLayout;horizontal=1;startSize=26;fillColor=none;horizontalStack=0;resizeParent=1;resizeParentMax=0;resizeLast=0;collapsible=1;marginBottom=0;whiteSpace=wrap;html=1;" vertex="1" parent="WIyWlLk6GJQsqaUBKTNV-1">
          <mxGeometry x="-80" y="150" width="155" height="52" as="geometry" />
        </mxCell>
        <mxCell id="YyLo7kHKkgCHPDjGbOCP-24" value="διαθέτει" style="endArrow=diamondThin;endSize=16;endFill=1;html=1;rounded=0;entryX=0.003;entryY=-0.029;entryDx=0;entryDy=0;entryPerimeter=0;exitX=1;exitY=0;exitDx=0;exitDy=0;" edge="1" parent="WIyWlLk6GJQsqaUBKTNV-1" source="YyLo7kHKkgCHPDjGbOCP-23" target="PkM5QRC6UXLmhjLL5aXF-1">
          <mxGeometry width="160" relative="1" as="geometry">
            <mxPoint x="95" y="167" as="sourcePoint" />
            <mxPoint x="145" y="120" as="targetPoint" />
          </mxGeometry>
        </mxCell>
        <mxCell id="YyLo7kHKkgCHPDjGbOCP-25" value="συμπληρώνει" style="endArrow=none;html=1;rounded=0;entryX=0.351;entryY=0.032;entryDx=0;entryDy=0;entryPerimeter=0;exitX=1;exitY=0.25;exitDx=0;exitDy=0;" edge="1" parent="WIyWlLk6GJQsqaUBKTNV-1" source="PkM5QRC6UXLmhjLL5aXF-0" target="PkM5QRC6UXLmhjLL5aXF-99">
          <mxGeometry width="50" height="50" relative="1" as="geometry">
            <mxPoint x="410" y="110" as="sourcePoint" />
            <mxPoint x="770" y="70" as="targetPoint" />
          </mxGeometry>
        </mxCell>
      </root>
    </mxGraphModel>
  </diagram>
</mxfile>
